<svg width="20" height="20" viewBox="0 0 20 20" fill="none" xmlns="http://www.w3.org/2000/svg">
<path d="M7.23656 20C4.25996 19.9828 1.79778 13.9066 1.79778 10.8121C1.79778 5.75726 5.58977 4.65062 7.05117 4.65062C7.70977 4.65062 8.41301 4.90925 9.03328 5.13812C9.46703 5.29777 9.91563 5.46257 10.1651 5.46257C10.3145 5.46257 10.6664 5.32238 10.9771 5.19937C11.6397 4.93558 12.4642 4.60773 13.4244 4.60773C13.4261 4.60773 13.4284 4.60773 13.4301 4.60773C14.147 4.60773 16.3209 4.76507 17.6278 6.72773L17.9339 7.18777L17.4933 7.52023C16.8639 7.99515 15.7155 8.86148 15.7155 10.5775C15.7155 12.61 17.0161 13.3916 17.6409 13.7676C17.9168 13.9335 18.2023 14.1046 18.2023 14.4788C18.2023 14.7232 16.2522 19.9697 13.4204 19.9697C12.7274 19.9697 12.2376 19.7614 11.8056 19.5777C11.3684 19.3917 10.9913 19.2315 10.3682 19.2315C10.0523 19.2315 9.65293 19.3809 9.23008 19.5394C8.65223 19.7551 7.99817 20 7.25602 20H7.23656Z" fill="white"/>
<path d="M13.7244 0C13.7982 2.65922 11.8964 4.50406 9.99687 4.38836C9.68386 2.26621 11.8962 0 13.7244 0Z" fill="white"/>
</svg>
