<svg width="18" height="18" viewBox="0 0 18 18" fill="none" xmlns="http://www.w3.org/2000/svg">
<path d="M18 9.21774C18 8.74597 17.9262 8.2379 17.8525 7.69355H9.14754V10.8145H14.3484C14.2377 11.3589 14.0164 11.9032 13.7213 12.4113C13.2787 13.0645 12.7254 13.6089 12.0615 13.9718C11.2131 14.4798 10.2541 14.6976 9.14754 14.6976C8.11475 14.6976 7.15574 14.4435 6.30738 13.9355C5.42213 13.4274 4.7582 12.7379 4.2418 11.8669C3.72541 10.996 3.46721 10.0524 3.46721 9C3.46721 7.80242 3.79918 6.71371 4.46311 5.77016C5.05328 4.89919 5.86475 4.24597 6.89754 3.81048C7.89344 3.375 8.92623 3.22984 9.95902 3.375C11.0656 3.52016 11.9877 3.99194 12.7992 4.71774L15.2705 2.35887C13.5738 0.798387 11.5082 0 9.14754 0C7.4877 0 5.97541 0.435484 4.57377 1.23387C3.17213 2.03226 2.02869 3.12097 1.21721 4.5C0.405738 5.87903 0 7.40323 0 9C0 10.6331 0.405738 12.121 1.21721 13.5C2.02869 14.879 3.17213 16.004 4.57377 16.8024C5.97541 17.6008 7.4877 18 9.14754 18C10.8811 18 12.4303 17.6371 13.7582 16.875C15.0861 16.1492 16.1557 15.0968 16.8934 13.754C17.6311 12.4476 18 10.9234 18 9.21774Z" fill="white"/>
</svg>
